  0
SECTION
  2
HEADER
  9
$ACADVER
  1
AC1009
  9
$INSBASE
 10
0.0
 20
0.0
 30
0.0
  9
$EXTMIN
 10
0.0
 20
0.0
 30
0.0
  9
$EXTMAX
 10
0.0
 20
0.0
 30
0.0
  0
ENDSEC
  0
SECTION
  2
TABLES
  0
TABLE
  2
VPORT
 70
1
  0
VPORT
  2
*ACTIVE
 70
0
 10
0.0
 20
0.0
 11
1.0
 21
1.0
 12
-5.0
 22
1.0
 13
0.0
 23
0.0
 14
0.1
 24
0.1
 15
0.1
 25
0.1
 16
0.0
 26
0.0
 36
1.0
 17
0.0
 27
0.0
 37
0.0
 40
10.0
 41
1.0
 42
50.0
 43
0.0
 44
0.0
 50
0.0
 51
0.0
 71
0
 72
100
 73
1
 74
1
 75
0
 76
0
 77
0
 78
0
  0
ENDTAB
  0
TABLE
  2
LTYPE
 70
8
  0
LTYPE
  2
CONTINUOUS
 70
0
  3
Solid line
 72
65
 73
0
 40
0.0
  0
LTYPE
  2
DOT
 70
0
  3
. . . . . . .
 72
65
 73
2
 40
0.25
 49
0.0
 49
-0.25
  0
LTYPE
  2
DASHED
 70
0
  3
__ __ __ __ __
 72
65
 73
2
 40
0.8
 49
0.5
 49
-0.3
  0
LTYPE
  2
DASHDOT
 70
0
  3
__ . __ . __ .
 72
65
 73
4
 40
1.0
 49
0.5
 49
-0.25
 49
0.0
 49
-0.25
  0
LTYPE
  2
DIVIDE
 70
0
  3
____ . . ____ . . 
 72
65
 73
6
 40
1.25
 49
0.5
 49
-0.25
 49
0.0
 49
-0.25
 49
0.0
 49
-0.25
  0
LTYPE
  2
BORDER
 70
0
  3
__ __ . __ __ . 
 72
65
 73
6
 40
1.75
 49
0.5
 49
-0.25
 49
0.5
 49
-0.25
 49
0.0
 49
-0.25
  0
LTYPE
  2
HIDDEN
 70
0
  3
__ __ __ __ __
 72
65
 73
2
 40
0.4
 49
0.25
 49
-0.25
  0
LTYPE
  2
CENTER
 70
0
  3
____ _ ____ _ __
 72
65
 73
4
 40
2.0
 49
1.25
 49
-0.25
 49
0.25
 49
-0.25
  0
ENDTAB
  0
TABLE
  2
LAYER
 70
1
  0
LAYER
  2
PYDXF
 70
64
 62
7
  6
continuous
  0
ENDTAB
  0
TABLE
  2
STYLE
 70
1
  0
STYLE
  2
STANDARD
 70
0
 40
0
 41
1.0
 50
0.0
 71
0
 42
1
 3
ARIAL.TTF
 4

  0
ENDTAB
  0
TABLE
  2
VIEW
 70
1
  0
VIEW
  2
BF_TOPVIEW
 70
0
 40
120.0
 10
0.0
 20
0.0
 41
200.0
 11
0.0
 21
0.0
 31
1.0
 12
0.0
 22
0.0
 32
0.0
 42
50.0
 43
0.0
 44
0.0
 50
0.0
 71
0
  0
ENDTAB
  0
ENDSEC
  0
SECTION
  2
BLOCKS
  0
ENDSEC
  0
SECTION
  2
ENTITIES
  0
3DFACE
  8
0
 10
106.89998626708984
 20
39.000003814697266
 30
14.600000381469727
 11
100.9000015258789
 21
39.0
 31
14.600000381469727
 12
100.9000015258789
 22
13.0
 32
14.600000381469727
 13
100.9000015258789
 23
13.0
 33
14.600000381469727
  0
3DFACE
  8
0
 10
100.9000015258789
 20
13.0
 30
14.600000381469727
 11
185.0
 21
13.0
 31
14.600000381469727
 12
185.0
 22
39.0
 32
14.600000381469727
 13
185.0
 23
39.0
 33
14.600000381469727
  0
3DFACE
  8
0
 10
179.0
 20
39.000003814697266
 30
14.600000381469727
 11
179.0
 21
44.000003814697266
 31
14.600000381469727
 12
177.0
 22
44.000003814697266
 32
14.600000381469727
 13
177.0
 23
44.000003814697266
 33
14.600000381469727
  0
3DFACE
  8
0
 10
100.9000015258789
 20
13.0
 30
14.600000381469727
 11
185.0
 21
39.0
 31
14.600000381469727
 12
179.0
 22
39.000003814697266
 32
14.600000381469727
 13
179.0
 23
39.000003814697266
 33
14.600000381469727
  0
3DFACE
  8
0
 10
108.89998626708984
 20
44.000003814697266
 30
14.600000381469727
 11
106.89998626708984
 21
44.000003814697266
 31
14.600000381469727
 12
106.89998626708984
 22
39.000003814697266
 32
14.600000381469727
 13
106.89998626708984
 23
39.000003814697266
 33
14.600000381469727
  0
3DFACE
  8
0
 10
179.0
 20
39.000003814697266
 30
14.600000381469727
 11
177.0
 21
44.000003814697266
 31
14.600000381469727
 12
177.0
 22
42.000003814697266
 32
14.600000381469727
 13
177.0
 23
42.000003814697266
 33
14.600000381469727
  0
3DFACE
  8
0
 10
179.0
 20
39.000003814697266
 30
14.600000381469727
 11
177.0
 21
42.000003814697266
 31
14.600000381469727
 12
176.96157836914062
 22
41.60982131958008
 32
14.600000381469727
 13
176.96157836914062
 23
41.60982131958008
 33
14.600000381469727
  0
3DFACE
  8
0
 10
108.89998626708984
 20
44.000003814697266
 30
14.600000381469727
 11
106.89998626708984
 21
39.000003814697266
 31
14.600000381469727
 12
100.9000015258789
 22
13.0
 32
14.600000381469727
 13
100.9000015258789
 23
13.0
 33
14.600000381469727
  0
3DFACE
  8
0
 10
108.89998626708984
 20
42.000003814697266
 30
14.600000381469727
 11
108.89998626708984
 21
44.000003814697266
 31
14.600000381469727
 12
100.9000015258789
 22
13.0
 32
14.600000381469727
 13
100.9000015258789
 23
13.0
 33
14.600000381469727
  0
3DFACE
  8
0
 10
179.0
 20
39.000003814697266
 30
14.600000381469727
 11
176.96157836914062
 21
41.60982131958008
 31
14.600000381469727
 12
176.8477783203125
 22
41.23463821411133
 32
14.600000381469727
 13
176.8477783203125
 23
41.23463821411133
 33
14.600000381469727
  0
3DFACE
  8
0
 10
179.0
 20
39.000003814697266
 30
14.600000381469727
 11
176.8477783203125
 21
41.23463821411133
 31
14.600000381469727
 12
176.66294860839844
 22
40.888858795166016
 32
14.600000381469727
 13
176.66294860839844
 23
40.888858795166016
 33
14.600000381469727
  0
3DFACE
  8
0
 10
108.93841552734375
 20
41.609806060791016
 30
14.600000381469727
 11
108.89998626708984
 21
42.000003814697266
 31
14.600000381469727
 12
100.9000015258789
 22
13.0
 32
14.600000381469727
 13
100.9000015258789
 23
13.0
 33
14.600000381469727
  0
3DFACE
  8
0
 10
109.0522232055664
 20
41.23463821411133
 30
14.600000381469727
 11
108.93841552734375
 21
41.609806060791016
 31
14.600000381469727
 12
100.9000015258789
 22
13.0
 32
14.600000381469727
 13
100.9000015258789
 23
13.0
 33
14.600000381469727
  0
3DFACE
  8
0
 10
179.0
 20
39.000003814697266
 30
14.600000381469727
 11
176.66294860839844
 21
40.888858795166016
 31
14.600000381469727
 12
176.41421508789062
 22
40.58578872680664
 32
14.600000381469727
 13
176.41421508789062
 23
40.58578872680664
 33
14.600000381469727
  0
3DFACE
  8
0
 10
179.0
 20
39.000003814697266
 30
14.600000381469727
 11
176.41421508789062
 21
40.58578872680664
 31
14.600000381469727
 12
176.11114501953125
 22
40.33707046508789
 32
14.600000381469727
 13
176.11114501953125
 23
40.33707046508789
 33
14.600000381469727
  0
3DFACE
  8
0
 10
109.23704528808594
 20
40.888858795166016
 30
14.600000381469727
 11
109.0522232055664
 21
41.23463821411133
 31
14.600000381469727
 12
100.9000015258789
 22
13.0
 32
14.600000381469727
 13
100.9000015258789
 23
13.0
 33
14.600000381469727
  0
3DFACE
  8
0
 10
109.48577880859375
 20
40.58578872680664
 30
14.600000381469727
 11
109.23704528808594
 21
40.888858795166016
 31
14.600000381469727
 12
100.9000015258789
 22
13.0
 32
14.600000381469727
 13
100.9000015258789
 23
13.0
 33
14.600000381469727
  0
3DFACE
  8
0
 10
179.0
 20
39.000003814697266
 30
14.600000381469727
 11
176.11114501953125
 21
40.33707046508789
 31
14.600000381469727
 12
175.76536560058594
 22
40.152225494384766
 32
14.600000381469727
 13
175.76536560058594
 23
40.152225494384766
 33
14.600000381469727
  0
3DFACE
  8
0
 10
179.0
 20
39.000003814697266
 30
14.600000381469727
 11
175.76536560058594
 21
40.152225494384766
 31
14.600000381469727
 12
175.3901824951172
 22
40.03841018676758
 32
14.600000381469727
 13
175.3901824951172
 23
40.03841018676758
 33
14.600000381469727
  0
3DFACE
  8
0
 10
109.78884887695312
 20
40.33705520629883
 30
14.600000381469727
 11
109.48577880859375
 21
40.58578872680664
 31
14.600000381469727
 12
100.9000015258789
 22
13.0
 32
14.600000381469727
 13
100.9000015258789
 23
13.0
 33
14.600000381469727
  0
3DFACE
  8
0
 10
110.13462829589844
 20
40.152225494384766
 30
14.600000381469727
 11
109.78884887695312
 21
40.33705520629883
 31
14.600000381469727
 12
100.9000015258789
 22
13.0
 32
14.600000381469727
 13
100.9000015258789
 23
13.0
 33
14.600000381469727
  0
3DFACE
  8
0
 10
100.9000015258789
 20
13.0
 30
14.600000381469727
 11
179.0
 21
39.000003814697266
 31
14.600000381469727
 12
175.3901824951172
 22
40.03841018676758
 32
14.600000381469727
 13
175.3901824951172
 23
40.03841018676758
 33
14.600000381469727
  0
3DFACE
  8
0
 10
100.9000015258789
 20
13.0
 30
14.600000381469727
 11
175.3901824951172
 21
40.03841018676758
 31
14.600000381469727
 12
175.0
 22
39.99997329711914
 32
14.600000381469727
 13
175.0
 23
39.99997329711914
 33
14.600000381469727
  0
3DFACE
  8
0
 10
110.50981140136719
 20
40.03841018676758
 30
14.600000381469727
 11
110.13462829589844
 21
40.152225494384766
 31
14.600000381469727
 12
100.9000015258789
 22
13.0
 32
14.600000381469727
 13
100.9000015258789
 23
13.0
 33
14.600000381469727
  0
3DFACE
  8
0
 10
110.9000015258789
 20
39.99997329711914
 30
14.600000381469727
 11
110.50981140136719
 21
40.03841018676758
 31
14.600000381469727
 12
100.9000015258789
 22
13.0
 32
14.600000381469727
 13
100.9000015258789
 23
13.0
 33
14.600000381469727
  0
3DFACE
  8
0
 10
100.9000015258789
 20
13.0
 30
14.600000381469727
 11
175.0
 21
39.99997329711914
 31
14.600000381469727
 12
174.60980224609375
 22
40.03841018676758
 32
14.600000381469727
 13
174.60980224609375
 23
40.03841018676758
 33
14.600000381469727
  0
3DFACE
  8
0
 10
100.9000015258789
 20
13.0
 30
14.600000381469727
 11
174.60980224609375
 21
40.03841018676758
 31
14.600000381469727
 12
174.234619140625
 22
40.152225494384766
 32
14.600000381469727
 13
174.234619140625
 23
40.152225494384766
 33
14.600000381469727
  0
3DFACE
  8
0
 10
111.29019165039062
 20
40.03841018676758
 30
14.600000381469727
 11
110.9000015258789
 21
39.99997329711914
 31
14.600000381469727
 12
100.9000015258789
 22
13.0
 32
14.600000381469727
 13
100.9000015258789
 23
13.0
 33
14.600000381469727
  0
3DFACE
  8
0
 10
111.66537475585938
 20
40.152225494384766
 30
14.600000381469727
 11
111.29019165039062
 21
40.03841018676758
 31
14.600000381469727
 12
100.9000015258789
 22
13.0
 32
14.600000381469727
 13
100.9000015258789
 23
13.0
 33
14.600000381469727
  0
3DFACE
  8
0
 10
172.99996948242188
 20
42.000003814697266
 30
14.600000381469727
 11
172.99996948242188
 21
44.000003814697266
 31
14.600000381469727
 12
170.99996948242188
 22
44.000003814697266
 32
14.600000381469727
 13
170.99996948242188
 23
44.000003814697266
 33
14.600000381469727
  0
3DFACE
  8
0
 10
172.99996948242188
 20
42.000003814697266
 30
14.600000381469727
 11
170.99996948242188
 21
44.000003814697266
 31
14.600000381469727
 12
170.99996948242188
 22
39.000003814697266
 32
14.600000381469727
 13
170.99996948242188
 23
39.000003814697266
 33
14.600000381469727
  0
3DFACE
  8
0
 10
173.0384063720703
 20
41.609806060791016
 30
14.600000381469727
 11
172.99996948242188
 21
42.000003814697266
 31
14.600000381469727
 12
170.99996948242188
 22
39.000003814697266
 32
14.600000381469727
 13
170.99996948242188
 23
39.000003814697266
 33
14.600000381469727
  0
3DFACE
  8
0
 10
114.90001678466797
 20
39.000003814697266
 30
14.600000381469727
 11
114.90001678466797
 21
44.000003814697266
 31
14.600000381469727
 12
112.90001678466797
 22
44.000003814697266
 32
14.600000381469727
 13
112.90001678466797
 23
44.000003814697266
 33
14.600000381469727
  0
3DFACE
  8
0
 10
173.1522216796875
 20
41.23463821411133
 30
14.600000381469727
 11
173.0384063720703
 21
41.609806060791016
 31
14.600000381469727
 12
170.99996948242188
 22
39.000003814697266
 32
14.600000381469727
 13
170.99996948242188
 23
39.000003814697266
 33
14.600000381469727
  0
3DFACE
  8
0
 10
114.90001678466797
 20
39.000003814697266
 30
14.600000381469727
 11
112.90001678466797
 21
44.000003814697266
 31
14.600000381469727
 12
112.90001678466797
 22
42.000003814697266
 32
14.600000381469727
 13
112.90001678466797
 23
42.000003814697266
 33
14.600000381469727
  0
3DFACE
  8
0
 10
173.3370361328125
 20
40.888858795166016
 30
14.600000381469727
 11
173.1522216796875
 21
41.23463821411133
 31
14.600000381469727
 12
170.99996948242188
 22
39.000003814697266
 32
14.600000381469727
 13
170.99996948242188
 23
39.000003814697266
 33
14.600000381469727
  0
3DFACE
  8
0
 10
114.90001678466797
 20
39.000003814697266
 30
14.600000381469727
 11
112.90001678466797
 21
42.000003814697266
 31
14.600000381469727
 12
112.8615951538086
 22
41.60982131958008
 32
14.600000381469727
 13
112.8615951538086
 23
41.60982131958008
 33
14.600000381469727
  0
3DFACE
  8
0
 10
173.5857696533203
 20
40.58578872680664
 30
14.600000381469727
 11
173.3370361328125
 21
40.888858795166016
 31
14.600000381469727
 12
170.99996948242188
 22
39.000003814697266
 32
14.600000381469727
 13
170.99996948242188
 23
39.000003814697266
 33
14.600000381469727
  0
3DFACE
  8
0
 10
114.90001678466797
 20
39.000003814697266
 30
14.600000381469727
 11
112.8615951538086
 21
41.60982131958008
 31
14.600000381469727
 12
112.7477798461914
 22
41.23463821411133
 32
14.600000381469727
 13
112.7477798461914
 23
41.23463821411133
 33
14.600000381469727
  0
3DFACE
  8
0
 10
173.8888397216797
 20
40.33705520629883
 30
14.600000381469727
 11
173.5857696533203
 21
40.58578872680664
 31
14.600000381469727
 12
170.99996948242188
 22
39.000003814697266
 32
14.600000381469727
 13
170.99996948242188
 23
39.000003814697266
 33
14.600000381469727
  0
3DFACE
  8
0
 10
114.90001678466797
 20
39.000003814697266
 30
14.600000381469727
 11
112.7477798461914
 21
41.23463821411133
 31
14.600000381469727
 12
112.56295776367188
 22
40.888858795166016
 32
14.600000381469727
 13
112.56295776367188
 23
40.888858795166016
 33
14.600000381469727
  0
3DFACE
  8
0
 10
174.234619140625
 20
40.152225494384766
 30
14.600000381469727
 11
173.8888397216797
 21
40.33705520629883
 31
14.600000381469727
 12
170.99996948242188
 22
39.000003814697266
 32
14.600000381469727
 13
170.99996948242188
 23
39.000003814697266
 33
14.600000381469727
  0
3DFACE
  8
0
 10
114.90001678466797
 20
39.000003814697266
 30
14.600000381469727
 11
112.56295776367188
 21
40.888858795166016
 31
14.600000381469727
 12
112.3142318725586
 22
40.58578872680664
 32
14.600000381469727
 13
112.3142318725586
 23
40.58578872680664
 33
14.600000381469727
  0
3DFACE
  8
0
 10
100.9000015258789
 20
13.0
 30
14.600000381469727
 11
174.234619140625
 21
40.152225494384766
 31
14.600000381469727
 12
170.99996948242188
 22
39.000003814697266
 32
14.600000381469727
 13
170.99996948242188
 23
39.000003814697266
 33
14.600000381469727
  0
3DFACE
  8
0
 10
114.90001678466797
 20
39.000003814697266
 30
14.600000381469727
 11
112.3142318725586
 21
40.58578872680664
 31
14.600000381469727
 12
112.01115417480469
 22
40.33707046508789
 32
14.600000381469727
 13
112.01115417480469
 23
40.33707046508789
 33
14.600000381469727
  0
3DFACE
  8
0
 10
100.9000015258789
 20
13.0
 30
14.600000381469727
 11
170.99996948242188
 21
39.000003814697266
 31
14.600000381469727
 12
114.90001678466797
 22
39.000003814697266
 32
14.600000381469727
 13
114.90001678466797
 23
39.000003814697266
 33
14.600000381469727
  0
3DFACE
  8
0
 10
112.01115417480469
 20
40.33707046508789
 30
14.600000381469727
 11
111.66537475585938
 21
40.152225494384766
 31
14.600000381469727
 12
100.9000015258789
 22
13.0
 32
14.600000381469727
 13
100.9000015258789
 23
13.0
 33
14.600000381469727
  0
3DFACE
  8
0
 10
100.9000015258789
 20
13.0
 30
14.600000381469727
 11
114.90001678466797
 21
39.000003814697266
 31
14.600000381469727
 12
112.01115417480469
 22
40.33707046508789
 32
14.600000381469727
 13
112.01115417480469
 23
40.33707046508789
 33
14.600000381469727
  0
ENDSEC
  0
EOF
